<svg xmlns="http://www.w3.org/2000/svg" xmlns:xlink="http://www.w3.org/1999/xlink" width="1040" height="602.75"><rect width="1040" height="602.75" rx="5" ry="5" class="a"/><svg y="0%" x="0%"><circle cx="20" cy="20" r="6" fill="#ff5f58"/><circle cx="40" cy="20" r="6" fill="#ffbd2e"/><circle cx="60" cy="20" r="6" fill="#18c132"/></svg><svg height="542.75" viewBox="0 0 100 54.275" width="1000" x="15" xmlns="http://www.w3.org/2000/svg" xmlns:xlink="http://www.w3.org/1999/xlink" y="50"><style>@keyframes m{0%{transform:translateX(0)}.2%{transform:translateX(-100px)}.9%{transform:translateX(-200px)}2%{transform:translateX(-700px)}2.1%{transform:translateX(-1000px)}7.3%{transform:translateX(-1100px)}8.1%{transform:translateX(-1200px)}8.7%{transform:translateX(-1300px)}9.5%{transform:translateX(-1400px)}11.1%{transform:translateX(-1500px)}12%{transform:translateX(-1700px)}12.1%{transform:translateX(-1800px)}15.3%{transform:translateX(-1900px)}15.7%{transform:translateX(-2000px)}16.2%{transform:translateX(-2100px)}16.7%{transform:translateX(-2200px)}17.2%{transform:translateX(-2300px)}17.7%{transform:translateX(-2400px)}18.2%{transform:translateX(-2500px)}18.7%{transform:translateX(-2600px)}19.2%{transform:translateX(-2700px)}19.7%{transform:translateX(-2800px)}20.1%{transform:translateX(-2900px)}20.6%{transform:translateX(-3000px)}21.1%{transform:translateX(-3100px)}21.6%{transform:translateX(-3200px)}22.1%{transform:translateX(-3300px)}22.6%{transform:translateX(-3400px)}23.1%{transform:translateX(-3500px)}23.5%{transform:translateX(-3600px)}24%{transform:translateX(-3700px)}24.5%{transform:translateX(-3800px)}25%{transform:translateX(-3900px)}25.5%{transform:translateX(-4000px)}26%{transform:translateX(-4100px)}26.4%{transform:translateX(-4200px)}26.9%{transform:translateX(-4300px)}27.4%{transform:translateX(-4400px)}27.9%{transform:translateX(-4500px)}28.4%{transform:translateX(-4600px)}28.9%{transform:translateX(-4700px)}29.4%{transform:translateX(-4800px)}29.8%{transform:translateX(-4900px)}30.3%{transform:translateX(-5000px)}30.8%{transform:translateX(-5100px)}31.3%{transform:translateX(-5200px)}31.8%{transform:translateX(-5300px)}32.2%{transform:translateX(-5400px)}32.7%{transform:translateX(-5500px)}33.2%{transform:translateX(-5600px)}33.7%{transform:translateX(-5700px)}34.2%{transform:translateX(-5800px)}34.6%{transform:translateX(-5900px)}35.1%{transform:translateX(-6000px)}35.6%{transform:translateX(-6100px)}36.1%{transform:translateX(-6200px)}36.6%{transform:translateX(-6300px)}37%{transform:translateX(-6400px)}37.5%{transform:translateX(-6500px)}38%{transform:translateX(-6600px)}38.5%{transform:translateX(-6700px)}39%{transform:translateX(-6800px)}39.5%{transform:translateX(-6900px)}39.9%{transform:translateX(-7000px)}40.4%{transform:translateX(-7100px)}40.9%{transform:translateX(-7200px)}41.4%{transform:translateX(-7300px)}41.9%{transform:translateX(-7400px)}42.4%{transform:translateX(-7500px)}42.9%{transform:translateX(-7600px)}43.3%{transform:translateX(-7700px)}43.8%{transform:translateX(-7800px)}43.9%{transform:translateX(-7900px)}44%{transform:translateX(-8200px)}44.2%{transform:translateX(-8400px)}48.9%{transform:translateX(-8500px)}50.2%{transform:translateX(-8600px)}51%{transform:translateX(-8700px)}53.5%{transform:translateX(-8800px)}54.3%{transform:translateX(-8900px)}55%{transform:translateX(-9000px)}55.4%{transform:translateX(-9100px)}56%{transform:translateX(-9200px)}56.9%{transform:translateX(-9300px)}57.8%{transform:translateX(-9400px)}59%{transform:translateX(-9500px)}59.8%{transform:translateX(-9600px)}60.8%{transform:translateX(-9700px)}61.7%{transform:translateX(-9800px)}62.7%{transform:translateX(-9900px)}64.1%{transform:translateX(-10000px)}64.8%{transform:translateX(-10100px)}65.2%{transform:translateX(-10200px)}66.2%{transform:translateX(-10300px)}66.7%{transform:translateX(-10400px)}67.5%{transform:translateX(-10500px)}69.2%{transform:translateX(-10600px)}69.9%{transform:translateX(-10900px)}70.4%{transform:translateX(-11200px)}76.3%{transform:translateX(-11300px)}78.3%{transform:translateX(-11400px)}79.8%{transform:translateX(-11500px)}81.8%{transform:translateX(-11600px)}83.3%{transform:translateX(-11700px)}83.8%{transform:translateX(-11800px)}83.9%{transform:translateX(-12000px)}84%{transform:translateX(-12300px)}84.2%{transform:translateX(-12500px)}99.8%{transform:translateX(-12600px)}to{transform:translateX(-12800px)}}.a{fill:#282d35}.f{fill:#b9c0cb;white-space:pre}.g{fill:#a8cc8c;font-weight:700}.g,.h,.i,.j{white-space:pre}.h{fill:#66c2cd;font-weight:700}.i,.j{fill:#a8cc8c}.j{fill:#b9c0cb;font-weight:700}</style><g font-family="Monaco,Consolas,Menlo,'Bitstream Vera Sans Mono','Powerline Symbols',monospace" font-size="1.67"><defs><symbol id="1"><text y="1.67" class="f">Restored</text><text x="9.018" y="1.67" class="f">session:</text><text x="18.036" y="1.67" class="f">Tue</text><text x="22.044" y="1.67" class="f">Mar</text><text x="26.052" y="1.67" class="f">21</text><text x="29.058" y="1.67" class="f">16:10:41</text><text x="38.076" y="1.67" class="f">EDT</text><text x="42.084" y="1.67" class="f">2023</text></symbol><symbol id="2"><text y="1.67" class="g">➜</text><text x="3.006" y="1.67" class="h">abq-demo</text></symbol><symbol id="3"><text y="1.67" class="g">➜</text><text x="3.006" y="1.67" class="h">abq-demo</text><text x="12.024" y="1.67" class="f">rspec</text></symbol><symbol id="4"><text y="1.67" class="i">..............</text></symbol><symbol id="5"><text y="1.67" class="i">.....................</text></symbol><symbol id="6"><text y="1.67" class="i">...................................</text></symbol><symbol id="7"><text y="1.67" class="i">..........................................</text></symbol><symbol id="8"><text y="1.67" class="i">........................................................</text></symbol><symbol id="9"><text y="1.67" class="i">............................................................</text></symbol><symbol id="10"><text y="1.67" class="f">Finished</text><text x="9.018" y="1.67" class="f">in</text><text x="12.024" y="1.67" class="f">3.11</text><text x="17.034" y="1.67" class="f">seconds</text><text x="25.05" y="1.67" class="f">(files</text><text x="32.064" y="1.67" class="f">took</text><text x="37.074" y="1.67" class="f">0.17094</text><text x="45.09" y="1.67" class="f">seconds</text><text x="53.106" y="1.67" class="f">to</text><text x="56.112" y="1.67" class="f">load)</text></symbol><symbol id="11"><text y="1.67" class="i">60</text><text x="3.006" y="1.67" class="i">examples,</text><text x="13.026" y="1.67" class="i">0</text><text x="15.03" y="1.67" class="i">failures</text></symbol><symbol id="12"><text y="1.67" class="g">➜</text><text x="3.006" y="1.67" class="h">abq-demo</text><text x="12.024" y="1.67" class="f">abq</text></symbol><symbol id="13"><text y="1.67" class="g">➜</text><text x="3.006" y="1.67" class="h">abq-demo</text><text x="12.024" y="1.67" class="f">abq</text><text x="16.032" y="1.67" class="f">test</text></symbol><symbol id="14"><text y="1.67" class="g">➜</text><text x="3.006" y="1.67" class="h">abq-demo</text><text x="12.024" y="1.67" class="f">abq</text><text x="16.032" y="1.67" class="f">test</text><text x="21.042" y="1.67" class="f">-n</text></symbol><symbol id="15"><text y="1.67" class="g">➜</text><text x="3.006" y="1.67" class="h">abq-demo</text><text x="12.024" y="1.67" class="f">abq</text><text x="16.032" y="1.67" class="f">test</text><text x="21.042" y="1.67" class="f">-n</text><text x="24.048" y="1.67" class="f">3</text></symbol><symbol id="16"><text y="1.67" class="g">➜</text><text x="3.006" y="1.67" class="h">abq-demo</text><text x="12.024" y="1.67" class="f">abq</text><text x="16.032" y="1.67" class="f">test</text><text x="21.042" y="1.67" class="f">-n</text><text x="24.048" y="1.67" class="f">3</text><text x="26.052" y="1.67" class="f">--</text></symbol><symbol id="17"><text y="1.67" class="g">➜</text><text x="3.006" y="1.67" class="h">abq-demo</text><text x="12.024" y="1.67" class="f">abq</text><text x="16.032" y="1.67" class="f">test</text><text x="21.042" y="1.67" class="f">-n</text><text x="24.048" y="1.67" class="f">3</text><text x="26.052" y="1.67" class="f">--</text><text x="29.058" y="1.67" class="f">rspec</text></symbol><symbol id="18"><text y="1.67" class="f">Generic</text><text x="8.016" y="1.67" class="f">test</text><text x="13.026" y="1.67" class="f">runner</text><text x="20.04" y="1.67" class="f">for</text><text x="24.048" y="1.67" class="f">abd927fc-eecb-40f4-9da9-936fb1c70c7b</text><text x="61.122" y="1.67" class="f">started</text><text x="69.138" y="1.67" class="f">on</text><text x="72.144" y="1.67" class="f">worker</text><text x="79.158" y="1.67" class="f">9e979227-6bbb-48df-a2</text></symbol><symbol id="19"><text y="1.67" class="f">2c-2e7ef1ca07bd</text><text x="16.032" y="1.67" class="f">(worker</text><text x="24.048" y="1.67" class="f">0,</text><text x="27.054" y="1.67" class="f">runner</text><text x="34.068" y="1.67" class="f">1)</text></symbol><symbol id="20"><text y="1.67" class="f">Generic</text><text x="8.016" y="1.67" class="f">test</text><text x="13.026" y="1.67" class="f">runner</text><text x="20.04" y="1.67" class="f">for</text><text x="24.048" y="1.67" class="f">abd927fc-eecb-40f4-9da9-936fb1c70c7b</text><text x="61.122" y="1.67" class="f">started</text><text x="69.138" y="1.67" class="f">on</text><text x="72.144" y="1.67" class="f">worker</text><text x="79.158" y="1.67" class="f">35299298-f996-4234-8d</text></symbol><symbol id="21"><text y="1.67" class="f">33-3183e90fe43a</text><text x="16.032" y="1.67" class="f">(worker</text><text x="24.048" y="1.67" class="f">0,</text><text x="27.054" y="1.67" class="f">runner</text><text x="34.068" y="1.67" class="f">2)</text></symbol><symbol id="22"><text y="1.67" class="f">Generic</text><text x="8.016" y="1.67" class="f">test</text><text x="13.026" y="1.67" class="f">runner</text><text x="20.04" y="1.67" class="f">for</text><text x="24.048" y="1.67" class="f">abd927fc-eecb-40f4-9da9-936fb1c70c7b</text><text x="61.122" y="1.67" class="f">started</text><text x="69.138" y="1.67" class="f">on</text><text x="72.144" y="1.67" class="f">worker</text><text x="79.158" y="1.67" class="f">064f7f5b-3bbf-4063-8a</text></symbol><symbol id="23"><text y="1.67" class="f">ee-8f476ab16fba</text><text x="16.032" y="1.67" class="f">(worker</text><text x="24.048" y="1.67" class="f">0,</text><text x="27.054" y="1.67" class="f">runner</text><text x="34.068" y="1.67" class="f">3)</text></symbol><symbol id="24"><text y="1.67" class="f">--------------------------------------------------------------------------------</text></symbol><symbol id="25"><text y="1.67" class="f">-------------------------------------</text><text x="38.076" y="1.67" class="f">ABQ</text><text x="42.084" y="1.67" class="f">--------------------------------------</text></symbol><symbol id="26"><text y="1.67" class="j">Finished</text><text x="9.018" y="1.67" class="j">in</text><text x="12.024" y="1.67" class="j">1.44</text><text x="17.034" y="1.67" class="j">seconds</text><text x="25.05" y="1.67" class="f">(0.00</text><text x="31.062" y="1.67" class="f">seconds</text><text x="39.078" y="1.67" class="f">spent</text><text x="45.09" y="1.67" class="f">in</text><text x="48.096" y="1.67" class="f">test</text><text x="53.106" y="1.67" class="f">code)</text></symbol><symbol id="27"><text y="1.67" class="g">60</text><text x="3.006" y="1.67" class="g">tests</text><text x="8.016" y="1.67" class="f">,</text><text x="10.02" y="1.67" class="f">0</text><text x="12.024" y="1.67" class="f">failures</text></symbol><symbol id="a"><path fill="transparent" d="M0 0h100v25H0z"/></symbol><symbol id="b"><path fill="#6f7683" d="M0 0h1.102v2.171H0z"/></symbol></defs><path class="a" d="M0 0h100v54.275H0z"/><g style="animation-duration:10.695884s;animation-iteration-count:infinite;animation-name:m;animation-timing-function:steps(1,end)"><svg width="12900"><svg><use xlink:href="#a"/><use xlink:href="#b" x="-.004"/></svg><svg x="100"><use xlink:href="#a"/><use xlink:href="#b" x="-.004" y="2.146"/><use xlink:href="#1"/></svg><svg x="200"><use xlink:href="#a"/><use xlink:href="#b" x="-.004" y="2.146"/><use xlink:href="#1"/></svg><svg x="300"><use xlink:href="#a"/><use xlink:href="#b" x="-.004" y="2.146"/><use xlink:href="#1"/></svg><svg x="400"><use xlink:href="#a"/><use xlink:href="#b" x="-.004" y="2.146"/><use xlink:href="#1"/></svg><svg x="500"><use xlink:href="#a"/><use xlink:href="#b" x="-.004" y="2.146"/><use xlink:href="#1"/></svg><svg x="600"><use xlink:href="#a"/><use xlink:href="#b" x="-.004" y="2.146"/><use xlink:href="#1"/></svg><svg x="700"><use xlink:href="#a"/><use xlink:href="#b" x="-.004" y="2.146"/><use xlink:href="#1"/></svg><svg x="800"><use xlink:href="#a"/><use xlink:href="#b" x="11.996" y="2.146"/><use xlink:href="#1"/><use xlink:href="#2" y="2.171"/></svg><svg x="900"><use xlink:href="#a"/><use xlink:href="#b" x="11.996" y="2.146"/><use xlink:href="#1"/><use xlink:href="#2" y="2.171"/></svg><svg x="1000"><use xlink:href="#a"/><use xlink:href="#b" x="11.996" y="2.146"/><use xlink:href="#1"/><use xlink:href="#2" y="2.171"/></svg><svg x="1100"><use xlink:href="#a"/><use xlink:href="#b" x="12.996" y="2.146"/><use xlink:href="#1"/><text y="3.841" class="g">➜</text><text x="3.006" y="3.841" class="h">abq-demo</text><text x="12.024" y="3.841" class="f">r</text></svg><svg x="1200"><use xlink:href="#a"/><use xlink:href="#b" x="13.996" y="2.146"/><use xlink:href="#1"/><text y="3.841" class="g">➜</text><text x="3.006" y="3.841" class="h">abq-demo</text><text x="12.024" y="3.841" class="f">rs</text></svg><svg x="1300"><use xlink:href="#a"/><use xlink:href="#b" x="14.996" y="2.146"/><use xlink:href="#1"/><text y="3.841" class="g">➜</text><text x="3.006" y="3.841" class="h">abq-demo</text><text x="12.024" y="3.841" class="f">rsp</text></svg><svg x="1400"><use xlink:href="#a"/><use xlink:href="#b" x="15.996" y="2.146"/><use xlink:href="#1"/><text y="3.841" class="g">➜</text><text x="3.006" y="3.841" class="h">abq-demo</text><text x="12.024" y="3.841" class="f">rspe</text></svg><svg x="1500"><use xlink:href="#a"/><use xlink:href="#b" x="16.996" y="2.146"/><use xlink:href="#1"/><use xlink:href="#3" y="2.171"/></svg><svg x="1600"><use xlink:href="#a"/><use xlink:href="#b" x="16.996" y="2.146"/><use xlink:href="#1"/><use xlink:href="#3" y="2.171"/></svg><svg x="1700"><use xlink:href="#a"/><use xlink:href="#b" x="-.004" y="4.317"/><use xlink:href="#1"/><use xlink:href="#3" y="2.171"/></svg><svg x="1800"><use xlink:href="#a"/><use xlink:href="#b" x="-.004" y="4.317"/><use xlink:href="#1"/><use xlink:href="#3" y="2.171"/></svg><svg x="1900"><use xlink:href="#a"/><use xlink:href="#b" x=".996" y="4.317"/><use xlink:href="#1"/><use xlink:href="#3" y="2.171"/><text y="6.012" class="i">.</text></svg><svg x="2000"><use xlink:href="#a"/><use xlink:href="#b" x="1.996" y="4.317"/><use xlink:href="#1"/><use xlink:href="#3" y="2.171"/><text y="6.012" class="i">..</text></svg><svg x="2100"><use xlink:href="#a"/><use xlink:href="#b" x="2.996" y="4.317"/><use xlink:href="#1"/><use xlink:href="#3" y="2.171"/><text y="6.012" class="i">...</text></svg><svg x="2200"><use xlink:href="#a"/><use xlink:href="#b" x="3.996" y="4.317"/><use xlink:href="#1"/><use xlink:href="#3" y="2.171"/><text y="6.012" class="i">....</text></svg><svg x="2300"><use xlink:href="#a"/><use xlink:href="#b" x="4.996" y="4.317"/><use xlink:href="#1"/><use xlink:href="#3" y="2.171"/><text y="6.012" class="i">.....</text></svg><svg x="2400"><use xlink:href="#a"/><use xlink:href="#b" x="5.996" y="4.317"/><use xlink:href="#1"/><use xlink:href="#3" y="2.171"/><text y="6.012" class="i">......</text></svg><svg x="2500"><use xlink:href="#a"/><use xlink:href="#b" x="6.996" y="4.317"/><use xlink:href="#1"/><use xlink:href="#3" y="2.171"/><text y="6.012" class="i">.......</text></svg><svg x="2600"><use xlink:href="#a"/><use xlink:href="#b" x="7.996" y="4.317"/><use xlink:href="#1"/><use xlink:href="#3" y="2.171"/><text y="6.012" class="i">........</text></svg><svg x="2700"><use xlink:href="#a"/><use xlink:href="#b" x="8.996" y="4.317"/><use xlink:href="#1"/><use xlink:href="#3" y="2.171"/><text y="6.012" class="i">.........</text></svg><svg x="2800"><use xlink:href="#a"/><use xlink:href="#b" x="9.996" y="4.317"/><use xlink:href="#1"/><use xlink:href="#3" y="2.171"/><text y="6.012" class="i">..........</text></svg><svg x="2900"><use xlink:href="#a"/><use xlink:href="#b" x="10.996" y="4.317"/><use xlink:href="#1"/><use xlink:href="#3" y="2.171"/><text y="6.012" class="i">...........</text></svg><svg x="3000"><use xlink:href="#a"/><use xlink:href="#b" x="11.996" y="4.317"/><use xlink:href="#1"/><use xlink:href="#3" y="2.171"/><text y="6.012" class="i">............</text></svg><svg x="3100"><use xlink:href="#a"/><use xlink:href="#b" x="12.996" y="4.317"/><use xlink:href="#1"/><use xlink:href="#3" y="2.171"/><text y="6.012" class="i">.............</text></svg><svg x="3200"><use xlink:href="#a"/><use xlink:href="#b" x="13.996" y="4.317"/><use xlink:href="#1"/><use xlink:href="#3" y="2.171"/><use xlink:href="#4" y="4.342"/></svg><svg x="3300"><use xlink:href="#a"/><use xlink:href="#b" x="14.996" y="4.317"/><use xlink:href="#1"/><use xlink:href="#3" y="2.171"/><text y="6.012" class="i">...............</text></svg><svg x="3400"><use xlink:href="#a"/><use xlink:href="#b" x="15.996" y="4.317"/><use xlink:href="#1"/><use xlink:href="#3" y="2.171"/><text y="6.012" class="i">................</text></svg><svg x="3500"><use xlink:href="#a"/><use xlink:href="#b" x="16.996" y="4.317"/><use xlink:href="#1"/><use xlink:href="#3" y="2.171"/><text y="6.012" class="i">.................</text></svg><svg x="3600"><use xlink:href="#a"/><use xlink:href="#b" x="17.996" y="4.317"/><use xlink:href="#1"/><use xlink:href="#3" y="2.171"/><text y="6.012" class="i">..................</text></svg><svg x="3700"><use xlink:href="#a"/><use xlink:href="#b" x="18.996" y="4.317"/><use xlink:href="#1"/><use xlink:href="#3" y="2.171"/><text y="6.012" class="i">...................</text></svg><svg x="3800"><use xlink:href="#a"/><use xlink:href="#b" x="19.996" y="4.317"/><use xlink:href="#1"/><use xlink:href="#3" y="2.171"/><text y="6.012" class="i">....................</text></svg><svg x="3900"><use xlink:href="#a"/><use xlink:href="#b" x="20.996" y="4.317"/><use xlink:href="#1"/><use xlink:href="#3" y="2.171"/><use xlink:href="#5" y="4.342"/></svg><svg x="4000"><use xlink:href="#a"/><use xlink:href="#b" x="21.996" y="4.317"/><use xlink:href="#1"/><use xlink:href="#3" y="2.171"/><text y="6.012" class="i">......................</text></svg><svg x="4100"><use xlink:href="#a"/><use xlink:href="#b" x="22.996" y="4.317"/><use xlink:href="#1"/><use xlink:href="#3" y="2.171"/><text y="6.012" class="i">.......................</text></svg><svg x="4200"><use xlink:href="#a"/><use xlink:href="#b" x="23.996" y="4.317"/><use xlink:href="#1"/><use xlink:href="#3" y="2.171"/><text y="6.012" class="i">........................</text></svg><svg x="4300"><use xlink:href="#a"/><use xlink:href="#b" x="24.996" y="4.317"/><use xlink:href="#1"/><use xlink:href="#3" y="2.171"/><text y="6.012" class="i">.........................</text></svg><svg x="4400"><use xlink:href="#a"/><use xlink:href="#b" x="25.996" y="4.317"/><use xlink:href="#1"/><use xlink:href="#3" y="2.171"/><text y="6.012" class="i">..........................</text></svg><svg x="4500"><use xlink:href="#a"/><use xlink:href="#b" x="26.996" y="4.317"/><use xlink:href="#1"/><use xlink:href="#3" y="2.171"/><text y="6.012" class="i">...........................</text></svg><svg x="4600"><use xlink:href="#a"/><use xlink:href="#b" x="27.996" y="4.317"/><use xlink:href="#1"/><use xlink:href="#3" y="2.171"/><text y="6.012" class="i">............................</text></svg><svg x="4700"><use xlink:href="#a"/><use xlink:href="#b" x="28.996" y="4.317"/><use xlink:href="#1"/><use xlink:href="#3" y="2.171"/><text y="6.012" class="i">.............................</text></svg><svg x="4800"><use xlink:href="#a"/><use xlink:href="#b" x="29.996" y="4.317"/><use xlink:href="#1"/><use xlink:href="#3" y="2.171"/><text y="6.012" class="i">..............................</text></svg><svg x="4900"><use xlink:href="#a"/><use xlink:href="#b" x="30.996" y="4.317"/><use xlink:href="#1"/><use xlink:href="#3" y="2.171"/><text y="6.012" class="i">...............................</text></svg><svg x="5000"><use xlink:href="#a"/><use xlink:href="#b" x="31.996" y="4.317"/><use xlink:href="#1"/><use xlink:href="#3" y="2.171"/><text y="6.012" class="i">................................</text></svg><svg x="5100"><use xlink:href="#a"/><use xlink:href="#b" x="32.996" y="4.317"/><use xlink:href="#1"/><use xlink:href="#3" y="2.171"/><text y="6.012" class="i">.................................</text></svg><svg x="5200"><use xlink:href="#a"/><use xlink:href="#b" x="33.996" y="4.317"/><use xlink:href="#1"/><use xlink:href="#3" y="2.171"/><text y="6.012" class="i">..................................</text></svg><svg x="5300"><use xlink:href="#a"/><use xlink:href="#b" x="34.996" y="4.317"/><use xlink:href="#1"/><use xlink:href="#3" y="2.171"/><use xlink:href="#6" y="4.342"/></svg><svg x="5400"><use xlink:href="#a"/><use xlink:href="#b" x="35.996" y="4.317"/><use xlink:href="#1"/><use xlink:href="#3" y="2.171"/><text y="6.012" class="i">....................................</text></svg><svg x="5500"><use xlink:href="#a"/><use xlink:href="#b" x="36.996" y="4.317"/><use xlink:href="#1"/><use xlink:href="#3" y="2.171"/><text y="6.012" class="i">.....................................</text></svg><svg x="5600"><use xlink:href="#a"/><use xlink:href="#b" x="37.996" y="4.317"/><use xlink:href="#1"/><use xlink:href="#3" y="2.171"/><text y="6.012" class="i">......................................</text></svg><svg x="5700"><use xlink:href="#a"/><use xlink:href="#b" x="38.996" y="4.317"/><use xlink:href="#1"/><use xlink:href="#3" y="2.171"/><text y="6.012" class="i">.......................................</text></svg><svg x="5800"><use xlink:href="#a"/><use xlink:href="#b" x="39.996" y="4.317"/><use xlink:href="#1"/><use xlink:href="#3" y="2.171"/><text y="6.012" class="i">........................................</text></svg><svg x="5900"><use xlink:href="#a"/><use xlink:href="#b" x="40.996" y="4.317"/><use xlink:href="#1"/><use xlink:href="#3" y="2.171"/><text y="6.012" class="i">.........................................</text></svg><svg x="6000"><use xlink:href="#a"/><use xlink:href="#b" x="41.996" y="4.317"/><use xlink:href="#1"/><use xlink:href="#3" y="2.171"/><use xlink:href="#7" y="4.342"/></svg><svg x="6100"><use xlink:href="#a"/><use xlink:href="#b" x="42.996" y="4.317"/><use xlink:href="#1"/><use xlink:href="#3" y="2.171"/><text y="6.012" class="i">...........................................</text></svg><svg x="6200"><use xlink:href="#a"/><use xlink:href="#b" x="43.996" y="4.317"/><use xlink:href="#1"/><use xlink:href="#3" y="2.171"/><text y="6.012" class="i">............................................</text></svg><svg x="6300"><use xlink:href="#a"/><use xlink:href="#b" x="44.996" y="4.317"/><use xlink:href="#1"/><use xlink:href="#3" y="2.171"/><text y="6.012" class="i">.............................................</text></svg><svg x="6400"><use xlink:href="#a"/><use xlink:href="#b" x="45.996" y="4.317"/><use xlink:href="#1"/><use xlink:href="#3" y="2.171"/><text y="6.012" class="i">..............................................</text></svg><svg x="6500"><use xlink:href="#a"/><use xlink:href="#b" x="46.996" y="4.317"/><use xlink:href="#1"/><use xlink:href="#3" y="2.171"/><text y="6.012" class="i">...............................................</text></svg><svg x="6600"><use xlink:href="#a"/><use xlink:href="#b" x="47.996" y="4.317"/><use xlink:href="#1"/><use xlink:href="#3" y="2.171"/><text y="6.012" class="i">................................................</text></svg><svg x="6700"><use xlink:href="#a"/><use xlink:href="#b" x="48.996" y="4.317"/><use xlink:href="#1"/><use xlink:href="#3" y="2.171"/><text y="6.012" class="i">.................................................</text></svg><svg x="6800"><use xlink:href="#a"/><use xlink:href="#b" x="49.996" y="4.317"/><use xlink:href="#1"/><use xlink:href="#3" y="2.171"/><text y="6.012" class="i">..................................................</text></svg><svg x="6900"><use xlink:href="#a"/><use xlink:href="#b" x="50.996" y="4.317"/><use xlink:href="#1"/><use xlink:href="#3" y="2.171"/><text y="6.012" class="i">...................................................</text></svg><svg x="7000"><use xlink:href="#a"/><use xlink:href="#b" x="51.996" y="4.317"/><use xlink:href="#1"/><use xlink:href="#3" y="2.171"/><text y="6.012" class="i">....................................................</text></svg><svg x="7100"><use xlink:href="#a"/><use xlink:href="#b" x="52.996" y="4.317"/><use xlink:href="#1"/><use xlink:href="#3" y="2.171"/><text y="6.012" class="i">.....................................................</text></svg><svg x="7200"><use xlink:href="#a"/><use xlink:href="#b" x="53.996" y="4.317"/><use xlink:href="#1"/><use xlink:href="#3" y="2.171"/><text y="6.012" class="i">......................................................</text></svg><svg x="7300"><use xlink:href="#a"/><use xlink:href="#b" x="54.996" y="4.317"/><use xlink:href="#1"/><use xlink:href="#3" y="2.171"/><text y="6.012" class="i">.......................................................</text></svg><svg x="7400"><use xlink:href="#a"/><use xlink:href="#b" x="55.996" y="4.317"/><use xlink:href="#1"/><use xlink:href="#3" y="2.171"/><use xlink:href="#8" y="4.342"/></svg><svg x="7500"><use xlink:href="#a"/><use xlink:href="#b" x="56.996" y="4.317"/><use xlink:href="#1"/><use xlink:href="#3" y="2.171"/><text y="6.012" class="i">.........................................................</text></svg><svg x="7600"><use xlink:href="#a"/><use xlink:href="#b" x="57.996" y="4.317"/><use xlink:href="#1"/><use xlink:href="#3" y="2.171"/><text y="6.012" class="i">..........................................................</text></svg><svg x="7700"><use xlink:href="#a"/><use xlink:href="#b" x="58.996" y="4.317"/><use xlink:href="#1"/><use xlink:href="#3" y="2.171"/><text y="6.012" class="i">...........................................................</text></svg><svg x="7800"><use xlink:href="#a"/><use xlink:href="#b" x="-.004" y="15.172"/><use xlink:href="#1"/><use xlink:href="#3" y="2.171"/><use xlink:href="#9" y="4.342"/><use xlink:href="#10" y="8.684"/><use xlink:href="#11" y="10.855"/></svg><svg x="7900"><use xlink:href="#a"/><use xlink:href="#b" x="-.004" y="15.172"/><use xlink:href="#1"/><use xlink:href="#3" y="2.171"/><use xlink:href="#9" y="4.342"/><use xlink:href="#10" y="8.684"/><use xlink:href="#11" y="10.855"/></svg><svg x="8000"><use xlink:href="#a"/><use xlink:href="#b" x="-.004" y="15.172"/><use xlink:href="#1"/><use xlink:href="#3" y="2.171"/><use xlink:href="#9" y="4.342"/><use xlink:href="#10" y="8.684"/><use xlink:href="#11" y="10.855"/></svg><svg x="8100"><use xlink:href="#a"/><use xlink:href="#b" x="-.004" y="15.172"/><use xlink:href="#1"/><use xlink:href="#3" y="2.171"/><use xlink:href="#9" y="4.342"/><use xlink:href="#10" y="8.684"/><use xlink:href="#11" y="10.855"/></svg><svg x="8200"><use xlink:href="#a"/><use xlink:href="#b" x="-.004" y="15.172"/><use xlink:href="#1"/><use xlink:href="#3" y="2.171"/><use xlink:href="#9" y="4.342"/><use xlink:href="#10" y="8.684"/><use xlink:href="#11" y="10.855"/></svg><svg x="8300"><use xlink:href="#a"/><use xlink:href="#b" x="11.996" y="15.172"/><use xlink:href="#1"/><use xlink:href="#3" y="2.171"/><use xlink:href="#9" y="4.342"/><use xlink:href="#10" y="8.684"/><use xlink:href="#11" y="10.855"/><use xlink:href="#2" y="15.197"/></svg><svg x="8400"><use xlink:href="#a"/><use xlink:href="#b" x="11.996" y="15.172"/><use xlink:href="#1"/><use xlink:href="#3" y="2.171"/><use xlink:href="#9" y="4.342"/><use xlink:href="#10" y="8.684"/><use xlink:href="#11" y="10.855"/><use xlink:href="#2" y="15.197"/></svg><svg x="8500"><use xlink:href="#a"/><use xlink:href="#b" x="12.996" y="15.172"/><use xlink:href="#1"/><use xlink:href="#3" y="2.171"/><use xlink:href="#9" y="4.342"/><use xlink:href="#10" y="8.684"/><use xlink:href="#11" y="10.855"/><text y="16.867" class="g">➜</text><text x="3.006" y="16.867" class="h">abq-demo</text><text x="12.024" y="16.867" class="f">a</text></svg><svg x="8600"><use xlink:href="#a"/><use xlink:href="#b" x="13.996" y="15.172"/><use xlink:href="#1"/><use xlink:href="#3" y="2.171"/><use xlink:href="#9" y="4.342"/><use xlink:href="#10" y="8.684"/><use xlink:href="#11" y="10.855"/><text y="16.867" class="g">➜</text><text x="3.006" y="16.867" class="h">abq-demo</text><text x="12.024" y="16.867" class="f">ab</text></svg><svg x="8700"><use xlink:href="#a"/><use xlink:href="#b" x="14.996" y="15.172"/><use xlink:href="#1"/><use xlink:href="#3" y="2.171"/><use xlink:href="#9" y="4.342"/><use xlink:href="#10" y="8.684"/><use xlink:href="#11" y="10.855"/><use xlink:href="#12" y="15.197"/></svg><svg x="8800"><use xlink:href="#a"/><use xlink:href="#b" x="15.996" y="15.172"/><use xlink:href="#1"/><use xlink:href="#3" y="2.171"/><use xlink:href="#9" y="4.342"/><use xlink:href="#10" y="8.684"/><use xlink:href="#11" y="10.855"/><use xlink:href="#12" y="15.197"/></svg><svg x="8900"><use xlink:href="#a"/><use xlink:href="#b" x="16.996" y="15.172"/><use xlink:href="#1"/><use xlink:href="#3" y="2.171"/><use xlink:href="#9" y="4.342"/><use xlink:href="#10" y="8.684"/><use xlink:href="#11" y="10.855"/><text y="16.867" class="g">➜</text><text x="3.006" y="16.867" class="h">abq-demo</text><text x="12.024" y="16.867" class="f">abq</text><text x="16.032" y="16.867" class="f">t</text></svg><svg x="9000"><use xlink:href="#a"/><use xlink:href="#b" x="17.996" y="15.172"/><use xlink:href="#1"/><use xlink:href="#3" y="2.171"/><use xlink:href="#9" y="4.342"/><use xlink:href="#10" y="8.684"/><use xlink:href="#11" y="10.855"/><text y="16.867" class="g">➜</text><text x="3.006" y="16.867" class="h">abq-demo</text><text x="12.024" y="16.867" class="f">abq</text><text x="16.032" y="16.867" class="f">te</text></svg><svg x="9100"><use xlink:href="#a"/><use xlink:href="#b" x="18.996" y="15.172"/><use xlink:href="#1"/><use xlink:href="#3" y="2.171"/><use xlink:href="#9" y="4.342"/><use xlink:href="#10" y="8.684"/><use xlink:href="#11" y="10.855"/><text y="16.867" class="g">➜</text><text x="3.006" y="16.867" class="h">abq-demo</text><text x="12.024" y="16.867" class="f">abq</text><text x="16.032" y="16.867" class="f">tes</text></svg><svg x="9200"><use xlink:href="#a"/><use xlink:href="#b" x="19.996" y="15.172"/><use xlink:href="#1"/><use xlink:href="#3" y="2.171"/><use xlink:href="#9" y="4.342"/><use xlink:href="#10" y="8.684"/><use xlink:href="#11" y="10.855"/><use xlink:href="#13" y="15.197"/></svg><svg x="9300"><use xlink:href="#a"/><use xlink:href="#b" x="20.996" y="15.172"/><use xlink:href="#1"/><use xlink:href="#3" y="2.171"/><use xlink:href="#9" y="4.342"/><use xlink:href="#10" y="8.684"/><use xlink:href="#11" y="10.855"/><use xlink:href="#13" y="15.197"/></svg><svg x="9400"><use xlink:href="#a"/><use xlink:href="#b" x="21.996" y="15.172"/><use xlink:href="#1"/><use xlink:href="#3" y="2.171"/><use xlink:href="#9" y="4.342"/><use xlink:href="#10" y="8.684"/><use xlink:href="#11" y="10.855"/><text y="16.867" class="g">➜</text><text x="3.006" y="16.867" class="h">abq-demo</text><text x="12.024" y="16.867" class="f">abq</text><text x="16.032" y="16.867" class="f">test</text><text x="21.042" y="16.867" class="f">-</text></svg><svg x="9500"><use xlink:href="#a"/><use xlink:href="#b" x="22.996" y="15.172"/><use xlink:href="#1"/><use xlink:href="#3" y="2.171"/><use xlink:href="#9" y="4.342"/><use xlink:href="#10" y="8.684"/><use xlink:href="#11" y="10.855"/><use xlink:href="#14" y="15.197"/></svg><svg x="9600"><use xlink:href="#a"/><use xlink:href="#b" x="23.996" y="15.172"/><use xlink:href="#1"/><use xlink:href="#3" y="2.171"/><use xlink:href="#9" y="4.342"/><use xlink:href="#10" y="8.684"/><use xlink:href="#11" y="10.855"/><use xlink:href="#14" y="15.197"/></svg><svg x="9700"><use xlink:href="#a"/><use xlink:href="#b" x="24.996" y="15.172"/><use xlink:href="#1"/><use xlink:href="#3" y="2.171"/><use xlink:href="#9" y="4.342"/><use xlink:href="#10" y="8.684"/><use xlink:href="#11" y="10.855"/><use xlink:href="#15" y="15.197"/></svg><svg x="9800"><use xlink:href="#a"/><use xlink:href="#b" x="25.996" y="15.172"/><use xlink:href="#1"/><use xlink:href="#3" y="2.171"/><use xlink:href="#9" y="4.342"/><use xlink:href="#10" y="8.684"/><use xlink:href="#11" y="10.855"/><use xlink:href="#15" y="15.197"/></svg><svg x="9900"><use xlink:href="#a"/><use xlink:href="#b" x="26.996" y="15.172"/><use xlink:href="#1"/><use xlink:href="#3" y="2.171"/><use xlink:href="#9" y="4.342"/><use xlink:href="#10" y="8.684"/><use xlink:href="#11" y="10.855"/><text y="16.867" class="g">➜</text><text x="3.006" y="16.867" class="h">abq-demo</text><text x="12.024" y="16.867" class="f">abq</text><text x="16.032" y="16.867" class="f">test</text><text x="21.042" y="16.867" class="f">-n</text><text x="24.048" y="16.867" class="f">3</text><text x="26.052" y="16.867" class="f">-</text></svg><svg x="10000"><use xlink:href="#a"/><use xlink:href="#b" x="27.996" y="15.172"/><use xlink:href="#1"/><use xlink:href="#3" y="2.171"/><use xlink:href="#9" y="4.342"/><use xlink:href="#10" y="8.684"/><use xlink:href="#11" y="10.855"/><use xlink:href="#16" y="15.197"/></svg><svg x="10100"><use xlink:href="#a"/><use xlink:href="#b" x="28.996" y="15.172"/><use xlink:href="#1"/><use xlink:href="#3" y="2.171"/><use xlink:href="#9" y="4.342"/><use xlink:href="#10" y="8.684"/><use xlink:href="#11" y="10.855"/><use xlink:href="#16" y="15.197"/></svg><svg x="10200"><use xlink:href="#a"/><use xlink:href="#b" x="29.996" y="15.172"/><use xlink:href="#1"/><use xlink:href="#3" y="2.171"/><use xlink:href="#9" y="4.342"/><use xlink:href="#10" y="8.684"/><use xlink:href="#11" y="10.855"/><text y="16.867" class="g">➜</text><text x="3.006" y="16.867" class="h">abq-demo</text><text x="12.024" y="16.867" class="f">abq</text><text x="16.032" y="16.867" class="f">test</text><text x="21.042" y="16.867" class="f">-n</text><text x="24.048" y="16.867" class="f">3</text><text x="26.052" y="16.867" class="f">--</text><text x="29.058" y="16.867" class="f">r</text></svg><svg x="10300"><use xlink:href="#a"/><use xlink:href="#b" x="30.996" y="15.172"/><use xlink:href="#1"/><use xlink:href="#3" y="2.171"/><use xlink:href="#9" y="4.342"/><use xlink:href="#10" y="8.684"/><use xlink:href="#11" y="10.855"/><text y="16.867" class="g">➜</text><text x="3.006" y="16.867" class="h">abq-demo</text><text x="12.024" y="16.867" class="f">abq</text><text x="16.032" y="16.867" class="f">test</text><text x="21.042" y="16.867" class="f">-n</text><text x="24.048" y="16.867" class="f">3</text><text x="26.052" y="16.867" class="f">--</text><text x="29.058" y="16.867" class="f">rs</text></svg><svg x="10400"><use xlink:href="#a"/><use xlink:href="#b" x="31.996" y="15.172"/><use xlink:href="#1"/><use xlink:href="#3" y="2.171"/><use xlink:href="#9" y="4.342"/><use xlink:href="#10" y="8.684"/><use xlink:href="#11" y="10.855"/><text y="16.867" class="g">➜</text><text x="3.006" y="16.867" class="h">abq-demo</text><text x="12.024" y="16.867" class="f">abq</text><text x="16.032" y="16.867" class="f">test</text><text x="21.042" y="16.867" class="f">-n</text><text x="24.048" y="16.867" class="f">3</text><text x="26.052" y="16.867" class="f">--</text><text x="29.058" y="16.867" class="f">rsp</text></svg><svg x="10500"><use xlink:href="#a"/><use xlink:href="#b" x="32.996" y="15.172"/><use xlink:href="#1"/><use xlink:href="#3" y="2.171"/><use xlink:href="#9" y="4.342"/><use xlink:href="#10" y="8.684"/><use xlink:href="#11" y="10.855"/><text y="16.867" class="g">➜</text><text x="3.006" y="16.867" class="h">abq-demo</text><text x="12.024" y="16.867" class="f">abq</text><text x="16.032" y="16.867" class="f">test</text><text x="21.042" y="16.867" class="f">-n</text><text x="24.048" y="16.867" class="f">3</text><text x="26.052" y="16.867" class="f">--</text><text x="29.058" y="16.867" class="f">rspe</text></svg><svg x="10600"><use xlink:href="#a"/><use xlink:href="#b" x="33.996" y="15.172"/><use xlink:href="#1"/><use xlink:href="#3" y="2.171"/><use xlink:href="#9" y="4.342"/><use xlink:href="#10" y="8.684"/><use xlink:href="#11" y="10.855"/><use xlink:href="#17" y="15.197"/></svg><svg x="10700"><use xlink:href="#a"/><use xlink:href="#b" x="33.996" y="15.172"/><use xlink:href="#1"/><use xlink:href="#3" y="2.171"/><use xlink:href="#9" y="4.342"/><use xlink:href="#10" y="8.684"/><use xlink:href="#11" y="10.855"/><use xlink:href="#17" y="15.197"/></svg><svg x="10800"><use xlink:href="#a"/><use xlink:href="#b" x="-.004" y="17.343"/><use xlink:href="#1"/><use xlink:href="#3" y="2.171"/><use xlink:href="#9" y="4.342"/><use xlink:href="#10" y="8.684"/><use xlink:href="#11" y="10.855"/><use xlink:href="#17" y="15.197"/></svg><svg x="10900"><use xlink:href="#a"/><use xlink:href="#b" x="-.004" y="17.343"/><use xlink:href="#1"/><use xlink:href="#3" y="2.171"/><use xlink:href="#9" y="4.342"/><use xlink:href="#10" y="8.684"/><use xlink:href="#11" y="10.855"/><use xlink:href="#17" y="15.197"/></svg><svg x="11000"><use xlink:href="#a"/><use xlink:href="#b" x="16.996" y="19.514"/><use xlink:href="#1"/><use xlink:href="#3" y="2.171"/><use xlink:href="#9" y="4.342"/><use xlink:href="#10" y="8.684"/><use xlink:href="#11" y="10.855"/><use xlink:href="#17" y="15.197"/><use xlink:href="#18" y="17.368"/><text y="21.209" class="f">2c-2e7ef1ca07bd</text><text x="16.032" y="21.209" class="f">(</text></svg><svg x="11100"><use xlink:href="#a"/><use xlink:href="#b" x="-.004" y="26.027"/><use xlink:href="#1"/><use xlink:href="#3" y="2.171"/><use xlink:href="#9" y="4.342"/><use xlink:href="#10" y="8.684"/><use xlink:href="#11" y="10.855"/><use xlink:href="#17" y="15.197"/><use xlink:href="#18" y="17.368"/><use xlink:href="#19" y="19.539"/><use xlink:href="#20" y="21.71"/><use xlink:href="#21" y="23.881"/></svg><svg x="11200"><use xlink:href="#a"/><use xlink:href="#b" x="-.004" y="30.369"/><use xlink:href="#1"/><use xlink:href="#3" y="2.171"/><use xlink:href="#9" y="4.342"/><use xlink:href="#10" y="8.684"/><use xlink:href="#11" y="10.855"/><use xlink:href="#17" y="15.197"/><use xlink:href="#18" y="17.368"/><use xlink:href="#19" y="19.539"/><use xlink:href="#20" y="21.71"/><use xlink:href="#21" y="23.881"/><use xlink:href="#22" y="26.052"/><use xlink:href="#23" y="28.223"/></svg><svg x="11300"><use xlink:href="#a"/><use xlink:href="#b" x="13.996" y="30.369"/><use xlink:href="#1"/><use xlink:href="#3" y="2.171"/><use xlink:href="#9" y="4.342"/><use xlink:href="#10" y="8.684"/><use xlink:href="#11" y="10.855"/><use xlink:href="#17" y="15.197"/><use xlink:href="#18" y="17.368"/><use xlink:href="#19" y="19.539"/><use xlink:href="#20" y="21.71"/><use xlink:href="#21" y="23.881"/><use xlink:href="#22" y="26.052"/><use xlink:href="#23" y="28.223"/><use xlink:href="#4" y="30.394"/></svg><svg x="11400"><use xlink:href="#a"/><use xlink:href="#b" x="20.996" y="30.369"/><use xlink:href="#1"/><use xlink:href="#3" y="2.171"/><use xlink:href="#9" y="4.342"/><use xlink:href="#10" y="8.684"/><use xlink:href="#11" y="10.855"/><use xlink:href="#17" y="15.197"/><use xlink:href="#18" y="17.368"/><use xlink:href="#19" y="19.539"/><use xlink:href="#20" y="21.71"/><use xlink:href="#21" y="23.881"/><use xlink:href="#22" y="26.052"/><use xlink:href="#23" y="28.223"/><use xlink:href="#5" y="30.394"/></svg><svg x="11500"><use xlink:href="#a"/><use xlink:href="#b" x="34.996" y="30.369"/><use xlink:href="#1"/><use xlink:href="#3" y="2.171"/><use xlink:href="#9" y="4.342"/><use xlink:href="#10" y="8.684"/><use xlink:href="#11" y="10.855"/><use xlink:href="#17" y="15.197"/><use xlink:href="#18" y="17.368"/><use xlink:href="#19" y="19.539"/><use xlink:href="#20" y="21.71"/><use xlink:href="#21" y="23.881"/><use xlink:href="#22" y="26.052"/><use xlink:href="#23" y="28.223"/><use xlink:href="#6" y="30.394"/></svg><svg x="11600"><use xlink:href="#a"/><use xlink:href="#b" x="41.996" y="30.369"/><use xlink:href="#1"/><use xlink:href="#3" y="2.171"/><use xlink:href="#9" y="4.342"/><use xlink:href="#10" y="8.684"/><use xlink:href="#11" y="10.855"/><use xlink:href="#17" y="15.197"/><use xlink:href="#18" y="17.368"/><use xlink:href="#19" y="19.539"/><use xlink:href="#20" y="21.71"/><use xlink:href="#21" y="23.881"/><use xlink:href="#22" y="26.052"/><use xlink:href="#23" y="28.223"/><use xlink:href="#7" y="30.394"/></svg><svg x="11700"><use xlink:href="#a"/><use xlink:href="#b" x="55.996" y="30.369"/><use xlink:href="#1"/><use xlink:href="#3" y="2.171"/><use xlink:href="#9" y="4.342"/><use xlink:href="#10" y="8.684"/><use xlink:href="#11" y="10.855"/><use xlink:href="#17" y="15.197"/><use xlink:href="#18" y="17.368"/><use xlink:href="#19" y="19.539"/><use xlink:href="#20" y="21.71"/><use xlink:href="#21" y="23.881"/><use xlink:href="#22" y="26.052"/><use xlink:href="#23" y="28.223"/><use xlink:href="#8" y="30.394"/></svg><svg x="11800"><use xlink:href="#a"/><use xlink:href="#b" x="-.004" y="32.54"/><use xlink:href="#1"/><use xlink:href="#3" y="2.171"/><use xlink:href="#9" y="4.342"/><use xlink:href="#10" y="8.684"/><use xlink:href="#11" y="10.855"/><use xlink:href="#17" y="15.197"/><use xlink:href="#18" y="17.368"/><use xlink:href="#19" y="19.539"/><use xlink:href="#20" y="21.71"/><use xlink:href="#21" y="23.881"/><use xlink:href="#22" y="26.052"/><use xlink:href="#23" y="28.223"/><use xlink:href="#9" y="30.394"/></svg><svg x="11900"><use xlink:href="#a"/><use xlink:href="#b" x="-.004" y="49.908"/><use xlink:href="#1"/><use xlink:href="#3" y="2.171"/><use xlink:href="#9" y="4.342"/><use xlink:href="#10" y="8.684"/><use xlink:href="#11" y="10.855"/><use xlink:href="#17" y="15.197"/><use xlink:href="#18" y="17.368"/><use xlink:href="#19" y="19.539"/><use xlink:href="#20" y="21.71"/><use xlink:href="#21" y="23.881"/><use xlink:href="#22" y="26.052"/><use xlink:href="#23" y="28.223"/><use xlink:href="#9" y="30.394"/><use xlink:href="#24" y="36.907"/><use xlink:href="#25" y="39.078"/><use xlink:href="#24" y="41.249"/><use xlink:href="#26" y="45.591"/><use xlink:href="#27" y="47.762"/></svg><svg x="12000"><use xlink:href="#a"/><use xlink:href="#b" x="-.004" y="49.908"/><use xlink:href="#1"/><use xlink:href="#3" y="2.171"/><use xlink:href="#9" y="4.342"/><use xlink:href="#10" y="8.684"/><use xlink:href="#11" y="10.855"/><use xlink:href="#17" y="15.197"/><use xlink:href="#18" y="17.368"/><use xlink:href="#19" y="19.539"/><use xlink:href="#20" y="21.71"/><use xlink:href="#21" y="23.881"/><use xlink:href="#22" y="26.052"/><use xlink:href="#23" y="28.223"/><use xlink:href="#9" y="30.394"/><use xlink:href="#24" y="36.907"/><use xlink:href="#25" y="39.078"/><use xlink:href="#24" y="41.249"/><use xlink:href="#26" y="45.591"/><use xlink:href="#27" y="47.762"/></svg><svg x="12100"><use xlink:href="#a"/><use xlink:href="#b" x="-.004" y="49.908"/><use xlink:href="#1"/><use xlink:href="#3" y="2.171"/><use xlink:href="#9" y="4.342"/><use xlink:href="#10" y="8.684"/><use xlink:href="#11" y="10.855"/><use xlink:href="#17" y="15.197"/><use xlink:href="#18" y="17.368"/><use xlink:href="#19" y="19.539"/><use xlink:href="#20" y="21.71"/><use xlink:href="#21" y="23.881"/><use xlink:href="#22" y="26.052"/><use xlink:href="#23" y="28.223"/><use xlink:href="#9" y="30.394"/><use xlink:href="#24" y="36.907"/><use xlink:href="#25" y="39.078"/><use xlink:href="#24" y="41.249"/><use xlink:href="#26" y="45.591"/><use xlink:href="#27" y="47.762"/></svg><svg x="12200"><use xlink:href="#a"/><use xlink:href="#b" x="-.004" y="49.908"/><use xlink:href="#1"/><use xlink:href="#3" y="2.171"/><use xlink:href="#9" y="4.342"/><use xlink:href="#10" y="8.684"/><use xlink:href="#11" y="10.855"/><use xlink:href="#17" y="15.197"/><use xlink:href="#18" y="17.368"/><use xlink:href="#19" y="19.539"/><use xlink:href="#20" y="21.71"/><use xlink:href="#21" y="23.881"/><use xlink:href="#22" y="26.052"/><use xlink:href="#23" y="28.223"/><use xlink:href="#9" y="30.394"/><use xlink:href="#24" y="36.907"/><use xlink:href="#25" y="39.078"/><use xlink:href="#24" y="41.249"/><use xlink:href="#26" y="45.591"/><use xlink:href="#27" y="47.762"/></svg><svg x="12300"><use xlink:href="#a"/><use xlink:href="#b" x="-.004" y="49.908"/><use xlink:href="#1"/><use xlink:href="#3" y="2.171"/><use xlink:href="#9" y="4.342"/><use xlink:href="#10" y="8.684"/><use xlink:href="#11" y="10.855"/><use xlink:href="#17" y="15.197"/><use xlink:href="#18" y="17.368"/><use xlink:href="#19" y="19.539"/><use xlink:href="#20" y="21.71"/><use xlink:href="#21" y="23.881"/><use xlink:href="#22" y="26.052"/><use xlink:href="#23" y="28.223"/><use xlink:href="#9" y="30.394"/><use xlink:href="#24" y="36.907"/><use xlink:href="#25" y="39.078"/><use xlink:href="#24" y="41.249"/><use xlink:href="#26" y="45.591"/><use xlink:href="#27" y="47.762"/></svg><svg x="12400"><use xlink:href="#a"/><use xlink:href="#b" x="11.996" y="49.908"/><use xlink:href="#1"/><use xlink:href="#3" y="2.171"/><use xlink:href="#9" y="4.342"/><use xlink:href="#10" y="8.684"/><use xlink:href="#11" y="10.855"/><use xlink:href="#17" y="15.197"/><use xlink:href="#18" y="17.368"/><use xlink:href="#19" y="19.539"/><use xlink:href="#20" y="21.71"/><use xlink:href="#21" y="23.881"/><use xlink:href="#22" y="26.052"/><use xlink:href="#23" y="28.223"/><use xlink:href="#9" y="30.394"/><use xlink:href="#24" y="36.907"/><use xlink:href="#25" y="39.078"/><use xlink:href="#24" y="41.249"/><use xlink:href="#26" y="45.591"/><use xlink:href="#27" y="47.762"/><use xlink:href="#2" y="49.933"/></svg><svg x="12500"><use xlink:href="#a"/><use xlink:href="#b" x="11.996" y="49.908"/><use xlink:href="#1"/><use xlink:href="#3" y="2.171"/><use xlink:href="#9" y="4.342"/><use xlink:href="#10" y="8.684"/><use xlink:href="#11" y="10.855"/><use xlink:href="#17" y="15.197"/><use xlink:href="#18" y="17.368"/><use xlink:href="#19" y="19.539"/><use xlink:href="#20" y="21.71"/><use xlink:href="#21" y="23.881"/><use xlink:href="#22" y="26.052"/><use xlink:href="#23" y="28.223"/><use xlink:href="#9" y="30.394"/><use xlink:href="#24" y="36.907"/><use xlink:href="#25" y="39.078"/><use xlink:href="#24" y="41.249"/><use xlink:href="#26" y="45.591"/><use xlink:href="#27" y="47.762"/><use xlink:href="#2" y="49.933"/></svg><svg x="12600"><use xlink:href="#a"/><use xlink:href="#b" x="-.004" y="52.079"/><use xlink:href="#1"/><use xlink:href="#3" y="2.171"/><use xlink:href="#9" y="4.342"/><use xlink:href="#10" y="8.684"/><use xlink:href="#11" y="10.855"/><use xlink:href="#17" y="15.197"/><use xlink:href="#18" y="17.368"/><use xlink:href="#19" y="19.539"/><use xlink:href="#20" y="21.71"/><use xlink:href="#21" y="23.881"/><use xlink:href="#22" y="26.052"/><use xlink:href="#23" y="28.223"/><use xlink:href="#9" y="30.394"/><use xlink:href="#24" y="36.907"/><use xlink:href="#25" y="39.078"/><use xlink:href="#24" y="41.249"/><use xlink:href="#26" y="45.591"/><use xlink:href="#27" y="47.762"/><use xlink:href="#2" y="49.933"/></svg><svg x="12700"><use xlink:href="#a"/><use xlink:href="#b" x="16.996" y="52.079"/><use xlink:href="#3"/><use xlink:href="#9" y="2.171"/><use xlink:href="#10" y="6.513"/><use xlink:href="#11" y="8.684"/><use xlink:href="#17" y="13.026"/><use xlink:href="#18" y="15.197"/><use xlink:href="#19" y="17.368"/><use xlink:href="#20" y="19.539"/><use xlink:href="#21" y="21.71"/><use xlink:href="#22" y="23.881"/><use xlink:href="#23" y="26.052"/><use xlink:href="#9" y="28.223"/><use xlink:href="#24" y="34.736"/><use xlink:href="#25" y="36.907"/><use xlink:href="#24" y="39.078"/><use xlink:href="#26" y="43.42"/><use xlink:href="#27" y="45.591"/><use xlink:href="#2" y="47.762"/><text y="53.774" class="f">Saving</text><text x="7.014" y="53.774" class="f">session...</text></svg><svg x="12800"><use xlink:href="#a"/><use xlink:href="#b" x="-.004" y="52.079"/><use xlink:href="#9"/><use xlink:href="#10" y="4.342"/><use xlink:href="#11" y="6.513"/><use xlink:href="#17" y="10.855"/><use xlink:href="#18" y="13.026"/><use xlink:href="#19" y="15.197"/><use xlink:href="#20" y="17.368"/><use xlink:href="#21" y="19.539"/><use xlink:href="#22" y="21.71"/><use xlink:href="#23" y="23.881"/><use xlink:href="#9" y="26.052"/><use xlink:href="#24" y="32.565"/><use xlink:href="#25" y="34.736"/><use xlink:href="#24" y="36.907"/><use xlink:href="#26" y="41.249"/><use xlink:href="#27" y="43.42"/><use xlink:href="#2" y="45.591"/><text y="51.603" class="f">Saving</text><text x="7.014" y="51.603" class="f">session...completed.</text></svg></svg></g></g></svg></svg>